<?xml version="1.0" encoding="utf-8" standalone="no"?>
<!DOCTYPE svg PUBLIC "-//W3C//DTD SVG 1.1//EN"
  "http://www.w3.org/Graphics/SVG/1.1/DTD/svg11.dtd">
<svg xmlns:xlink="http://www.w3.org/1999/xlink" width="126pt" height="125.28pt" viewBox="0 0 126 125.28" xmlns="http://www.w3.org/2000/svg" version="1.1">
 <metadata>
  <rdf:RDF xmlns:dc="http://purl.org/dc/elements/1.1/" xmlns:cc="http://creativecommons.org/ns#" xmlns:rdf="http://www.w3.org/1999/02/22-rdf-syntax-ns#">
   <cc:Work>
    <dc:type rdf:resource="http://purl.org/dc/dcmitype/StillImage"/>
    <dc:date>2025-09-29T16:19:09.485352</dc:date>
    <dc:format>image/svg+xml</dc:format>
    <dc:creator>
     <cc:Agent>
      <dc:title>Matplotlib v3.6.3, https://matplotlib.org/</dc:title>
     </cc:Agent>
    </dc:creator>
   </cc:Work>
  </rdf:RDF>
 </metadata>
 <defs>
  <style type="text/css">*{stroke-linejoin: round; stroke-linecap: butt}</style>
 </defs>
 <g id="figure_1">
  <g id="patch_1">
   <path d="M 0 125.28 
L 126 125.28 
L 126 0 
L 0 0 
L 0 125.28 
z
" style="fill: none"/>
  </g>
  <g id="axes_1">
   <g id="patch_2">
    <path d="M 63 106.992 
C 74.838666 106.992 86.194045 102.318793 94.565247 94.0016 
C 102.936448 85.684406 107.64 74.402288 107.64 62.64 
C 107.64 50.877712 102.936448 39.595594 94.565247 31.2784 
C 86.194045 22.961207 74.838666 18.288 63 18.288 
C 51.161334 18.288 39.805955 22.961207 31.434753 31.2784 
C 23.063552 39.595594 18.36 50.877712 18.36 62.64 
C 18.36 74.402288 23.063552 85.684406 31.434753 94.0016 
C 39.805955 102.318793 51.161334 106.992 63 106.992 
z
" clip-path="url(#p02c7496baa)" style="fill: #125740; stroke: #125740; stroke-linejoin: miter"/>
   </g>
   <g id="text_1">
    <!-- NYJ -->
    <g transform="translate(43.670312 68.15875) scale(0.2 -0.2)">
     <defs>
      <path id="DejaVuSans-Bold-4e" d="M 588 4666 
L 1931 4666 
L 3628 1466 
L 3628 4666 
L 4769 4666 
L 4769 0 
L 3425 0 
L 1728 3200 
L 1728 0 
L 588 0 
L 588 4666 
z
" transform="scale(0.015625)"/>
      <path id="DejaVuSans-Bold-59" d="M -63 4666 
L 1253 4666 
L 2316 3003 
L 3378 4666 
L 4697 4666 
L 2919 1966 
L 2919 0 
L 1716 0 
L 1716 1966 
L -63 4666 
z
" transform="scale(0.015625)"/>
      <path id="DejaVuSans-Bold-4a" d="M 588 4666 
L 1791 4666 
L 1791 453 
Q 1791 -419 1317 -850 
Q 844 -1281 -116 -1281 
L -359 -1281 
L -359 -372 
L -172 -372 
Q 203 -372 395 -162 
Q 588 47 588 453 
L 588 4666 
z
" transform="scale(0.015625)"/>
     </defs>
     <use xlink:href="#DejaVuSans-Bold-4e"/>
     <use xlink:href="#DejaVuSans-Bold-59" x="83.691406"/>
     <use xlink:href="#DejaVuSans-Bold-4a" x="156.103516"/>
    </g>
   </g>
  </g>
 </g>
 <defs>
  <clipPath id="p02c7496baa">
   <rect x="7.2" y="7.2" width="111.6" height="110.88"/>
  </clipPath>
 </defs>
</svg>
